PathFileType	4	(X/Y/Z)	26_2_17_p0_0-218_filt_butterworth.trc
DataRate	CameraRate	NumFrames	NumMarkers	Units	OrigDataRate	OrigDataStartFrame	OrigNumFrames
58.0	58.0	5	27	m	58.0	109	218
Frame#	Time	RHip			RKnee			RAnkle			RBigToe			RSmallToe			RHeel			LHip			LKnee			LAnkle			LBigToe			LSmallToe			LHeel			Neck			Head			Nose			RShoulder			RElbow			RWrist			RThumb			RIndex			RPinky			LShoulder			LElbow			LWrist			LThumb			LIndex			LPinky			
		X1	Y1	Z1	X2	Y2	Z2	X3	Y3	Z3	X4	Y4	Z4	X5	Y5	Z5	X6	Y6	Z6	X7	Y7	Z7	X8	Y8	Z8	X9	Y9	Z9	X10	Y10	Z10	X11	Y11	Z11	X12	Y12	Z12	X13	Y13	Z13	X14	Y14	Z14	X15	Y15	Z15	X16	Y16	Z16	X17	Y17	Z17	X18	Y18	Z18	X19	Y19	Z19	X20	Y20	Z20	X21	Y21	Z21	X22	Y22	Z22	X23	Y23	Z23	X24	Y24	Z24	X25	Y25	Z25	X26	Y26	Z26	X27	Y27	Z27	
109	1.8793103448275863	0.2915692842835892	0.7518002854458582	0.7775442347894337	0.28089939248172996	0.9606754077675832	1.2261725305860207	0.2550326542673697	1.2616680738720556	1.6579192084049412	0.24586456785259753	1.0384910126684141	1.7143726673348072	0.2879135929899949	1.0649059505088094	1.7111795605552396	0.24981685652737223	1.307528641691099	1.6843344333276313	0.06897478801591922	0.7672226301564178	0.7796591338800245	0.07681076555849688	0.9749948872957231	1.216508218875081	0.07036200492733993	1.1858302519618105	1.6412293989345235	0.095787093725693	1.068853287610128	1.7126065426767316	0.03399270916776342	1.081488446204454	1.696173634375244	0.08559954836945488	1.246915786861338	1.6684666046715095	0.16732924268631771	0.5432302499098417	0.3690725000185613	0.15952243348470813	0.30072105993048254	0.18451794794919163	0.16120377149199597	0.36710490206833074	0.3429035629329796	0.3415613607601927	0.5227717255983706	0.4226087452858365	0.39849585826914324	0.68884744116922	0.6694865797275724	0.3466030703001385	0.7107455113595025	0.9444183102712025	0.2851255965741379	0.6908502140605187	1.0489593606990577	0.3105489259589069	0.7243640681775602	1.0627973622845195	0.3466378626313057	0.7613646528157444	1.058492569885833	-0.010119171191627547	0.5916647297426714	0.4159619129275525	-0.03273081926244388	0.6951447625747056	0.6468715239891156	-0.018782945215307104	0.7626019824295052	0.9194433528004465	0.03802263096271088	0.7765015978906293	1.0200153161012886	0.007123854322825473	0.7662452876714271	1.0465435859525958	-0.040515263282791675	0.8479780080532439	1.0308374765530306
110	1.896551724137931	0.2915022835684059	0.751950515941179	0.7779019638509869	0.28120614539878797	0.9602320112248166	1.2262424238730818	0.2550383575609023	1.261721538956622	1.6579024925865662	0.2458871728166327	1.0385563593536844	1.7143737489928332	0.28795530784438544	1.0648235489091118	1.7121609770130926	0.2498269260676116	1.3075454909689688	1.684334305199127	0.06897312053201285	0.7673204124856737	0.779698702835625	0.07705053917396212	0.9745233359929898	1.215472499468147	0.07035707405965462	1.185810528872846	1.6412366789186947	0.09634739122488964	1.0691020227483181	1.7126428391556823	0.034216187558922535	1.0813316391005625	1.6950546561390094	0.08564354342845529	1.2468778432323253	1.6684647066078462	0.1673791498320442	0.5441826718994959	0.370162213836264	0.1595675922735625	0.30150382202511516	0.18550230862978817	0.16136687585040335	0.36880546815518755	0.34429046983140876	0.34164720937594883	0.5227315639252017	0.422636427926485	0.39997404435724965	0.6928184319900725	0.668843253516615	0.3466547896468202	0.7107989175835715	0.9444044494480623	0.2887956330965453	0.6965030826380492	1.0489391439473181	0.3167544810507587	0.735510243525371	1.0634676855808625	0.34747195102512196	0.7612483339534183	1.05872936152599	-0.01333995017278538	0.5952499807230697	0.41739120749574526	-0.03271538476553778	0.6954639418924619	0.646098613927802	-0.020976398395374136	0.7693419520427454	0.9185091805830274	0.03645614772445413	0.776305081714938	1.0199429560969053	0.006808877603554671	0.7659701801980003	1.0459726060621621	-0.04074939456959833	0.8484636671414783	1.031926056245574
111	1.913793103448276	0.2915122989997842	0.7519206486169479	0.777934482184278	0.281120420590553	0.9597947384169814	1.226281750194135	0.2550649503169967	1.2616736492603888	1.6578228425597983	0.24549133199943005	1.0371595022277118	1.7141284115017925	0.288342654646006	1.065781803852775	1.7133775389164345	0.24983314934774797	1.3075666335071765	1.6842870234824838	0.06888727956890452	0.7675537707882265	0.7797760805817744	0.07713573859604064	0.9743737756327562	1.2150945715999173	0.07032701654209537	1.1857819688699742	1.6412353103363948	0.0962693395319119	1.0705853078519854	1.7126655869782832	0.0343314666545074	1.0814076233634564	1.6946621789256757	0.085742168102433	1.2469225612607417	1.6684712817381788	0.1674106215863903	0.5449895327164257	0.3713447342824845	0.15961746630413154	0.3020902405517856	0.18626651279156553	0.16154839094917786	0.36913854411498376	0.3460674215389167	0.3416120903981219	0.5227294004042455	0.4226896357225858	0.40098507740478806	0.6956074218375046	0.6683880883538753	0.3465960943191595	0.7108303175719198	0.9443968376147642	0.2923980124836283	0.700806117942152	1.0488418230828143	0.32184354975916896	0.7449295228801185	1.0634258774910739	0.3486154695436894	0.7608734901803602	1.059020567608951	-0.015693167594039787	0.5961537444047773	0.4187248400944785	-0.03277525315617724	0.6960658736668537	0.6460647278791163	-0.02286742953732325	0.7750183511130947	0.9189863043053794	0.03528832497602213	0.7762156971744263	1.0199296906031106	0.006864572047040259	0.7656547196050489	1.0450596451778837	-0.040941317873415296	0.8487167907542675	1.0327942772978038
112	1.9310344827586208	0.2916149923546342	0.7521343953146432	0.7781977744409678	0.2810093986925551	0.9596050719170661	1.226284883769383	0.25510395011806597	1.2615268762500444	1.6576958046951682	0.24442406030655928	1.0334376860583325	1.713535597000938	0.2885712110966866	1.0663005244550048	1.7140944351965128	0.24983318166642082	1.3075842268999867	1.6842341112210901	0.0687131820286951	0.7679276897556696	0.7797643626147509	0.07712281170054429	0.9744041159351104	1.2150968156496356	0.07031113322909757	1.1856808289109082	1.6412232064670071	0.09577229084268676	1.0745300370072672	1.712619256796022	0.034384416855506715	1.0815012932600798	1.6949734366655362	0.08588111513679315	1.2470139810942447	1.6684854127313098	0.16746730680489175	0.5454664942688833	0.37261151801060083	0.15965073727110446	0.30231364780384024	0.18658963567410602	0.16164978624301327	0.3680799143393534	0.34712274923925257	0.3412391944126013	0.5226947087293321	0.4227642748949593	0.40134068110763027	0.6966580360141708	0.6681960475892854	0.3465677068524211	0.7108574574400346	0.9443932362950452	0.2949674190448864	0.7029183541911319	1.0488256465178056	0.3243893611111348	0.7493923856872792	1.0630840753126163	0.3494957038329	0.7605210042635304	1.0591036769860769	-0.016117722469490045	0.5945003200432293	0.4199571724083836	-0.03281098375505546	0.6965866533556213	0.6466718566146721	-0.024656957413697642	0.7803051644430915	0.9199390587219878	0.03485946217351544	0.7762166971603766	1.0199153430661432	0.007292442378732462	0.7653839250655423	1.0440235605491768	-0.04107520664737051	0.8489013222359872	1.0331423579716132
113	1.9482758620689653	0.29180759204415074	0.752952179296952	0.7791162196305208	0.2809569853579111	0.9595750888029355	1.2262050358580496	0.2551330397874685	1.2613475064498585	1.6575790401688146	0.2430063763571977	1.0285126890784202	1.7127889369645442	0.28853504072962016	1.0662439514648159	1.7142494715087975	0.2498294429197443	1.3075993390314644	1.684260385305701	0.06853485662879115	0.7682630631806122	0.7796033045340205	0.07708784312773137	0.9744440479876306	1.215167772657266	0.07044012106268911	1.185448736073257	1.6412260985397222	0.09488745104900986	1.0800157419041283	1.7124561135292775	0.034398251042547935	1.081552943452988	1.695750408426953	0.0860138523596976	1.247110819653628	1.6685017035170933	0.16756483414565249	0.5457031877669345	0.3738710701349933	0.15965915149091797	0.30230093535825475	0.18664464814722917	0.16166179018566695	0.36524294359151066	0.3472797868278422	0.34024888482893845	0.5225501521565862	0.42285448871439135	0.40131292221259507	0.6966757487230948	0.6681618899735573	0.34658035829453254	0.710893764031086	0.9443856411559732	0.2962105074217545	0.7036794676648683	1.0488980972199122	0.3249364562850832	0.749935333957202	1.0628272659628992	0.34985806548116705	0.7604085145471915	1.059123666227629	-0.014892277314242407	0.5907095036444698	0.420717626990599	-0.032902499640030704	0.696837229106642	0.6476245230803391	-0.02590936601617424	0.7839671898675643	0.9206241853870726	0.03488175583978305	0.776224312835073	1.0198706206324097	0.007723402185537855	0.7652272269809547	1.0432800979556895	-0.04112004658616811	0.8489436918620046	1.0331518155377113
